Coordinates
version=1
nRows=27
nColumns=12
inDegrees=yes

Units are S.I. units (second, meters, Newtons, ...)
Angles are in degrees

endheader
time	SC_y	SC_z	SC_x	AC_y	AC_z	AC_x	GH_y	GH_z	GH_yy	EL_x	PS_y
       0.0              -55.18          31.92          80.71          40.66         -16.05          17.17         -174.5          49.63         -82.85          54.74          34.47
   0.03567              -55.18          31.91           80.7          40.66         -16.05          17.16         -174.5          49.62         -82.81          54.74          34.47
   0.07133              -55.17          31.91          80.69          40.66         -16.05          17.16         -174.5          49.61         -82.77          54.74          34.47
     0.107              -55.16          31.91          80.67          40.67         -16.04          17.16         -174.4           49.6         -82.73          54.74          34.47
    0.1427              -55.16           31.9          80.66          40.67         -16.04          17.15         -174.4          49.59         -82.69          54.74          34.47
    0.1783              -55.15           31.9          80.64          40.68         -16.04          17.15         -174.3          49.58         -82.65          54.73          34.47
     0.214              -55.14          31.89          80.63          40.68         -16.04          17.15         -174.3          49.57          -82.6          54.73          34.47
    0.2497              -55.13          31.89          80.61          40.69         -16.04          17.14         -174.2          49.56         -82.54          54.73          34.48
    0.2853              -55.12          31.88          80.59          40.69         -16.03          17.14         -174.2          49.54         -82.49          54.72          34.48
     0.321              -55.11          31.87          80.57           40.7         -16.03          17.13         -174.1          49.53         -82.43          54.72          34.48
    0.3567               -55.1          31.87          80.55           40.7         -16.03          17.13         -174.0          49.51         -82.36          54.71          34.48
    0.3923              -55.09          31.86          80.53          40.71         -16.02          17.12         -174.0           49.5          -82.3          54.71          34.48
     0.428              -55.08          31.85           80.5          40.72         -16.02          17.11         -173.9          49.48         -82.22          54.71          34.48
    0.4637              -55.06          31.84          80.48          40.73         -16.02          17.11         -173.8          49.46         -82.14           54.7          34.48
    0.4993              -55.05          31.84          80.45          40.73         -16.01           17.1         -173.7          49.44         -82.05           54.7          34.49
     0.535              -55.03          31.83          80.42          40.74         -16.01          17.09         -173.6          49.42         -81.96          54.69          34.49
    0.5707              -55.01          31.82          80.38          40.75         -16.01          17.08         -173.5          49.39         -81.86          54.68          34.49
    0.6063              -54.99           31.8          80.34          40.76          -16.0          17.07         -173.4          49.36         -81.74          54.68          34.49
     0.642              -54.97          31.79           80.3          40.78          -16.0          17.06         -173.2          49.33         -81.62          54.67          34.49
    0.6777              -54.95          31.78          80.26          40.79         -15.99          17.05         -173.1           49.3         -81.49          54.66           34.5
    0.7133              -54.92          31.76          80.21           40.8         -15.98          17.04         -172.9          49.27         -81.34          54.65           34.5
     0.749              -54.89          31.75          80.16          40.82         -15.98          17.02         -172.8          49.23         -81.18          54.64           34.5
    0.7847              -54.86          31.73           80.1          40.84         -15.97          17.01         -172.6          49.18          -81.0          54.63          34.51
    0.8203              -54.83          31.71          80.03          40.86         -15.96          16.99         -172.4          49.14          -80.8          54.62          34.51
     0.856              -54.79          31.68          79.96          40.88         -15.95          16.97         -172.1          49.08         -80.58           54.6          34.52
    0.8917              -54.75          31.66          79.88           40.9         -15.94          16.95         -171.9          49.02         -80.34          54.59          34.52
    0.9273               -54.7          31.63          79.79          40.93         -15.93          16.93         -171.6          48.96         -80.06          54.57          34.53
